<?xml version="1.0" encoding="UTF-8" ?>
<!DOCTYPE svg PUBLIC "-//W3C//DTD SVG 1.1//EN" "http://www.w3.org/Graphics/SVG/1.1/DTD/svg11.dtd">
<svg width="358pt" height="132pt" viewBox="0 0 358 132" version="1.1" xmlns="http://www.w3.org/2000/svg">
<path fill="#003974" opacity="1.00" d=" M 74.27 0.00 L 87.77 0.00 C 98.79 0.66 109.91 1.98 120.35 5.78 C 119.33 15.17 118.36 24.57 117.46 33.97 C 104.38 26.48 88.63 24.06 73.81 26.43 C 64.34 27.91 54.73 30.95 47.50 37.49 C 40.81 43.45 36.60 52.10 35.97 61.03 C 34.49 73.05 37.23 86.17 45.93 95.02 C 52.44 101.97 61.71 105.71 71.00 107.08 C 77.45 107.82 84.16 107.81 90.31 105.47 C 84.63 114.26 79.10 123.14 73.44 131.95 C 66.27 131.41 58.92 132.70 51.90 130.69 C 38.95 127.48 26.24 121.76 16.88 112.03 C 6.35 101.68 1.04 86.99 0.00 72.46 L 0.00 61.35 C 0.96 46.06 6.31 30.40 17.74 19.75 C 32.78 5.50 54.22 1.07 74.27 0.00 Z" />
<path fill="#003974" opacity="1.00" d=" M 252.92 3.29 C 271.93 3.24 290.95 3.27 309.97 3.27 C 318.91 3.26 328.20 3.82 336.44 7.59 C 354.42 16.22 361.93 40.55 352.99 58.15 C 349.49 66.31 342.22 72.05 334.27 75.58 C 336.57 80.06 338.51 84.71 340.31 89.41 C 346.29 103.59 352.31 117.75 358.13 132.00 L 324.50 132.00 C 317.94 115.12 311.52 98.19 304.80 81.37 C 297.59 81.37 290.38 81.41 283.18 81.35 C 283.19 98.23 283.16 115.12 283.20 132.00 L 282.68 132.00 C 273.09 114.97 262.56 98.49 252.92 81.50 C 252.86 55.43 252.88 29.36 252.92 3.29 M 283.18 28.78 C 283.18 37.57 283.18 46.36 283.18 55.16 C 295.21 55.24 307.24 55.06 319.26 55.25 C 324.23 51.14 326.60 43.71 324.64 37.52 C 323.24 34.07 321.39 30.45 317.90 28.71 C 306.33 28.86 294.75 28.74 283.18 28.78 Z" />
<path fill="#003974" opacity="1.00" d=" M 80.67 55.60 C 94.46 55.27 108.26 55.53 122.06 55.47 C 117.11 63.59 111.82 71.50 106.84 79.60 C 98.12 79.50 89.38 79.80 80.67 79.44 C 80.80 71.50 80.80 63.55 80.67 55.60 Z" />
<path fill="#ed1c24" opacity="1.00" d=" M 122.06 55.47 C 132.76 38.65 143.61 21.93 154.11 4.98 C 162.56 18.91 170.92 32.89 179.12 46.96 C 179.45 47.54 180.12 48.69 180.45 49.27 C 174.35 59.25 168.03 69.09 161.95 79.09 C 159.40 75.31 157.31 71.25 155.03 67.31 C 140.82 88.95 126.32 110.40 112.06 132.00 L 74.30 132.00 L 73.44 131.95 C 79.10 123.14 84.63 114.26 90.31 105.47 C 95.78 96.82 101.21 88.14 106.84 79.60 C 111.82 71.50 117.11 63.59 122.06 55.47 Z" />
<path fill="#ed1c24" opacity="1.00" d=" M 195.85 87.94 C 197.13 85.92 198.30 83.73 200.31 82.32 C 210.21 98.87 220.17 115.37 229.92 132.00 L 191.96 132.00 L 193.00 131.76 C 189.08 125.51 185.27 119.16 181.79 112.66 C 181.65 112.25 181.37 111.43 181.23 111.03 C 185.92 103.22 191.09 95.71 195.85 87.94 Z" />
<path fill="#faab53" opacity="1.00" d=" M 207.40 5.85 C 209.60 8.39 211.08 11.43 212.76 14.32 C 226.23 36.66 239.43 59.17 252.92 81.50 C 262.56 98.49 273.09 114.97 282.68 132.00 L 245.93 132.00 C 234.82 113.15 223.80 94.24 212.66 75.40 C 211.35 72.94 209.97 70.50 208.27 68.28 C 206.43 71.42 204.57 74.55 202.47 77.52 C 201.53 79.00 200.14 80.43 200.31 82.32 C 198.30 83.73 197.13 85.92 195.85 87.94 C 191.09 95.71 185.92 103.22 181.23 111.03 C 181.37 111.43 181.65 112.25 181.79 112.66 C 181.43 112.52 180.71 112.23 180.35 112.08 C 176.14 118.73 171.85 125.31 167.72 132.00 L 128.96 132.00 C 139.95 114.36 150.94 96.72 161.95 79.09 C 168.03 69.09 174.35 59.25 180.45 49.27 C 180.12 48.69 179.45 47.54 179.12 46.96 C 179.61 47.38 180.60 48.23 181.09 48.65 C 189.58 34.22 199.00 20.33 207.40 5.85 Z" />
</svg>
