<svg width="24" height="24" viewBox="0 0 24 24" fill="none" xmlns="http://www.w3.org/2000/svg">
<rect width="24" height="24" rx="4" fill="#EB1C23"/>
<path d="M18.5822 12.8197C18.0936 13.2932 17.4319 13.43 17.1563 13.1544C16.8806 12.8768 17.0213 12.1942 17.5061 11.7227C17.9928 11.255 18.6411 11.0934 18.9206 11.371C19.2001 11.6486 19.0632 12.352 18.5822 12.8197Z" fill="#FAD10A"/>
<path d="M20.5575 12.7551C20.2115 13.1372 19.7381 13.2836 19.508 13.0897C19.2818 12.8939 19.3692 12.3844 19.7153 11.9984C20.067 11.6182 20.548 11.4413 20.7762 11.6391C20.9986 11.8368 20.9035 12.3691 20.5575 12.7551Z" fill="#FAD700"/>
<path d="M12.3633 10.3234C11.7054 10.1808 10.8023 10.4109 10.1825 11.0212C9.53423 11.6657 9.05892 12.5441 9.31558 13.2665C9.41823 13.565 9.84222 13.8483 10.1825 13.8616C10.8442 13.8901 11.6066 13.5878 12.1294 13.1049C12.6922 12.5916 12.9869 11.8368 13.0002 11.3064C12.9988 11.1752 12.9988 11.1162 12.9679 10.9717C12.9109 10.6637 12.6066 10.3729 12.3633 10.3234Z" fill="#F5A819"/>
<path d="M15.9129 12.8939C15.2626 13.5156 14.3025 13.7475 13.9318 13.3768C13.561 13.0079 13.7816 12.0877 14.428 11.4584C15.0725 10.8291 15.9813 10.6808 16.352 11.0516C16.7228 11.4147 16.5593 12.2627 15.9129 12.8939Z" fill="#F8B817"/>
<path d="M14.7664 11.2246C14.9926 11.0383 15.236 10.909 15.4489 10.89C15.2094 10.9812 14.9774 11.0896 14.7664 11.2246Z" fill="#F5A319"/>
<path d="M20.1773 9.83861C19.778 10.3881 19.1316 10.6219 18.8084 10.3995C18.4909 10.177 18.489 9.48687 18.8844 8.93552C19.2894 8.39176 19.9396 8.11419 20.2552 8.33663C20.5803 8.56288 20.5804 9.29485 20.1773 9.83861Z" fill="#FAD10A"/>
<path d="M21.723 10.4223C21.4017 10.8634 20.9245 11.0706 20.6697 10.89C20.4093 10.7094 20.4473 10.1751 20.7704 9.73214C21.088 9.29486 21.5785 9.0534 21.8333 9.23782C22.0899 9.41463 22.0481 9.9869 21.723 10.4223Z" fill="#FAD700"/>
<path d="M14.9812 8.10849C14.1732 9.07812 12.9393 9.47357 12.4051 8.97165C11.7872 8.37846 11.7606 7.43355 12.6674 6.29091C13.6447 5.06272 14.7246 5.01899 15.2949 5.47719C15.8653 5.93348 15.7855 7.13696 14.9812 8.10849Z" fill="#F8B517"/>
<path d="M17.9966 9.07622C17.4053 10.0782 16.4889 10.0953 16.0763 9.77207C15.6714 9.44126 15.7893 8.49254 16.3691 7.79859C16.9471 7.10274 17.8692 6.82897 18.2437 7.19591C18.5555 7.50581 18.4605 8.29481 17.9966 9.07622Z" fill="#F8BF11"/>
<path d="M12.4602 4.91824C12.4643 5.06274 12.4519 5.20342 12.4373 5.34602C12.4469 5.20533 12.4602 5.06274 12.4602 4.91824Z" fill="#F5A319"/>
<path d="M11.5229 3.16718C9.4144 2.27931 7.29264 5.14066 7.46186 6.7472C7.59499 7.9887 8.38395 8.48872 9.48666 8.31381C9.5057 8.30622 9.5228 8.30622 9.53605 8.30236C10.6996 8.14646 11.6768 7.19584 12.1217 6.3593C12.2757 6.06651 12.3822 5.71669 12.4354 5.35545C12.4368 5.34979 12.4354 5.34979 12.4354 5.34979C12.4465 5.2053 12.4601 5.06271 12.4601 4.91822C12.4601 4.16913 12.1864 3.45046 11.5229 3.16718Z" fill="#F5A11C"/>
<path d="M7.0968 9.57242C6.61579 9.65417 6.15569 9.8538 5.73932 10.1314C5.06058 10.5306 4.49782 11.0592 4.1708 11.6961C3.76775 12.4775 3.81718 13.1809 4.16253 13.6696C4.31843 13.9319 4.53707 14.0935 4.75001 14.1848C4.86603 14.2323 4.98954 14.2704 5.11313 14.2932H5.11728C5.48421 14.3806 5.89868 14.373 6.35688 14.2532C7.69725 13.8901 9.21443 12.4338 9.20493 11.0592C9.19803 9.71311 8.20901 9.33666 7.0968 9.57242Z" fill="#F8991C"/>
<path d="M20.1716 14.875C19.8028 15.2324 19.3237 15.3541 19.1069 15.1411C18.8978 14.9301 19.0138 14.432 19.3826 14.067C19.7552 13.7095 20.2495 13.565 20.4644 13.7761C20.6773 13.9871 20.5462 14.5137 20.1716 14.875Z" fill="#FAD700"/>
<path d="M17.8616 15.5594C17.3559 16.0024 16.7285 16.1203 16.4642 15.8237C16.2056 15.5309 16.409 14.9358 16.9243 14.4966C17.4376 14.0593 18.0403 13.9453 18.3046 14.2399C18.5594 14.5308 18.3806 15.1202 17.8616 15.5594Z" fill="#FAD10A"/>
<path d="M14.7797 16.5024C14.0914 17.088 13.2587 17.2439 12.9089 16.8522C12.559 16.4587 12.8366 15.6659 13.5192 15.0841C14.2055 14.4966 15.0097 14.3445 15.3577 14.7381C15.7056 15.1278 15.4642 15.9149 14.7797 16.5024Z" fill="#F8BA14"/>
<path d="M10.9829 15.2001C9.62545 14.816 7.46565 16.5481 7.77936 17.9074C7.85345 18.2154 8.27558 18.4873 8.61209 18.5272C9.97148 18.6679 11.502 17.2154 11.5837 16.1868C11.5768 16.067 11.5727 15.9473 11.5666 15.8294C11.5267 15.5195 11.2263 15.2685 10.9829 15.2001Z" fill="#FAA617"/>
<path d="M7.32689 16.7135C7.07972 15.683 5.83251 15.7648 4.99597 16.0119C4.68417 16.0842 4.37047 16.202 4.07768 16.3617H4.07217C3.64058 16.5728 3.28506 16.8294 2.95805 17.1431C2.55879 17.5272 1.87814 18.3904 2.01884 19.225C2.16333 20.1053 3.26223 20.3619 4.25658 20.1224C5.45056 19.8467 7.70903 18.3162 7.32689 16.7135Z" fill="#F8991C"/>
</svg>
