<svg width="24" height="24" viewBox="0 0 24 24" fill="none" xmlns="http://www.w3.org/2000/svg">
<rect width="24" height="24" rx="4" fill="#501C4B"/>
<path d="M19.8887 11.8685C19.8584 11.8281 19.0291 10.7358 17.4817 9.73454C17.6131 9.13782 17.6738 8.61191 17.7042 8.17702C17.775 7.14541 17.6738 6.4779 17.6738 6.44756L17.6536 6.31608L17.5221 6.29586C17.4918 6.29586 16.8243 6.18461 15.7927 6.26552C15.3679 6.29586 14.8319 6.35654 14.2453 6.4779C13.244 4.9305 12.1517 4.1214 12.1113 4.08094L12 4.00003L11.8887 4.08094C11.8382 4.1214 10.756 4.9305 9.74463 6.48802C9.14791 6.35654 8.622 6.29586 8.1871 6.26552C7.1555 6.19472 6.48799 6.29586 6.45765 6.29586L6.31606 6.31608L6.29583 6.44756C6.28571 6.4779 6.19469 7.14541 6.26549 8.17702C6.29583 8.61191 6.35651 9.13782 6.48799 9.73454C4.92035 10.7358 4.11125 11.818 4.08091 11.8685L4 11.9798L4.08091 12.091C4.11125 12.1416 4.93047 13.2238 6.48799 14.2352C6.36662 14.8218 6.29583 15.3578 6.26549 15.7826C6.19469 16.8142 6.28571 17.4817 6.29583 17.512L6.31606 17.6536L6.45765 17.6738C6.47788 17.6738 6.84197 17.7244 7.42857 17.7244C7.65107 17.7244 7.90392 17.7143 8.1871 17.6941C8.622 17.6637 9.15803 17.603 9.74463 17.4716C10.756 19.0291 11.8382 19.8483 11.8887 19.8888L12 19.9798L12.1113 19.8888C12.1618 19.8584 13.244 19.0291 14.2453 17.4817C14.8319 17.603 15.3578 17.6738 15.7927 17.7042C16.0759 17.7244 16.3287 17.7345 16.5512 17.7345C17.1378 17.7345 17.5019 17.684 17.5221 17.684L17.6637 17.6637L17.6839 17.5221C17.6839 17.4918 17.7851 16.8243 17.7143 15.7927C17.6839 15.3578 17.6233 14.8319 17.4918 14.2453C19.0493 13.244 19.8786 12.1517 19.909 12.1113L20 12L19.8887 11.8685ZM16.713 11.9798C16.8748 11.6359 17.0164 11.2921 17.1277 10.9583C17.7345 11.3831 18.1391 11.7775 18.3211 11.9697C18.1391 12.1618 17.7345 12.5664 17.1176 12.9912C17.0164 12.6675 16.8748 12.3237 16.713 11.9798ZM15.7927 6.62961C16.5209 6.57904 17.067 6.6195 17.3097 6.63972C17.3704 7.21621 17.5019 9.50192 16.3388 11.8989C16.1871 12.2023 16.0253 12.5057 15.8533 12.7788C15.7219 12.9811 15.5904 13.1833 15.4488 13.3654L15.4083 13.4261L15.4185 13.507C15.5601 14.4071 15.4893 15.1555 15.4488 15.4387C15.1656 15.4792 14.4273 15.55 13.5171 15.4084L13.4362 15.3982L13.3755 15.4488C13.2238 15.5601 13.0518 15.6814 12.8799 15.7927C12.7181 15.7219 12.5461 15.6511 12.3843 15.5601C12.7181 15.3578 13.0417 15.1353 13.3451 14.8926C14.2149 15.1049 14.842 15.0443 14.8723 15.0443L15.024 15.0341L15.0341 14.8824C15.0341 14.8521 15.0948 14.225 14.8824 13.3654C15.2061 12.9608 15.4893 12.5259 15.7421 12.0809C15.9039 11.7876 16.0556 11.4741 16.1871 11.1606C17.0468 9.07714 16.8748 7.3578 16.8647 7.27689L16.8546 7.12519L16.7029 7.10496C16.6321 7.09484 14.9633 6.93302 12.9204 7.75224C12.7585 7.6511 12.5866 7.54996 12.4147 7.45894C13.7193 6.88245 14.9532 6.69029 15.7927 6.62961ZM15.7927 13.5373C15.8533 13.4564 15.914 13.3755 15.9646 13.2946C16.5107 14.7813 16.5209 16.0658 16.5107 16.5006C16.0759 16.5209 14.8015 16.5006 13.3047 15.9646C13.3856 15.914 13.4564 15.8635 13.5272 15.8028C14.7206 15.9747 15.6005 15.8028 15.641 15.8028L15.7623 15.7826L15.7826 15.6612C15.8028 15.6106 15.9646 14.7206 15.7927 13.5373ZM9.42099 13.1732C9.11757 12.799 8.8445 12.3945 8.60177 11.9798C8.83439 11.5651 9.10746 11.1606 9.41087 10.7864L9.47155 10.7156L9.45133 10.6245C9.29962 10.0278 9.27939 9.54238 9.28951 9.29965C9.53224 9.29965 10.0177 9.30976 10.6144 9.46147L10.7054 9.48169L10.7762 9.42101C11.1606 9.1176 11.5651 8.83441 11.9899 8.59168C12.4147 8.83441 12.8192 9.10748 13.1934 9.4109L13.2642 9.47158L13.3552 9.45135C13.952 9.29965 14.4374 9.27942 14.67 9.27942C14.67 9.52215 14.6599 10.0076 14.5082 10.6043L14.488 10.6953L14.5487 10.7661C14.8521 11.1404 15.1252 11.5449 15.3679 11.9697C15.1252 12.3945 14.8521 12.799 14.5487 13.1833L14.488 13.2541L14.5082 13.3452C14.6599 13.9318 14.6802 14.4273 14.6802 14.6701C14.4374 14.6701 13.952 14.6599 13.3654 14.4981L13.2743 14.4779L13.2035 14.5386C12.8293 14.842 12.4248 15.1151 12.0101 15.3477C11.5853 15.1049 11.1808 14.8319 10.8066 14.5285L10.7358 14.4678L10.6448 14.488C10.048 14.6397 9.56258 14.6599 9.31985 14.6498C9.30973 14.4071 9.32996 13.9216 9.48167 13.3249L9.5019 13.2339L9.42099 13.1732ZM15.7927 8.30849L15.7724 8.18713L15.6511 8.1669C15.6106 8.15679 14.7307 7.99497 13.5373 8.1669C13.4665 8.11633 13.3856 8.05565 13.3047 8.00508C14.8015 7.45894 16.0657 7.45894 16.5006 7.46905C16.5209 7.90394 16.5107 9.17828 15.9646 10.665C15.914 10.5841 15.8533 10.5032 15.7927 10.4223C15.9646 9.22885 15.8028 8.34895 15.7927 8.30849ZM11.9697 7.23644C11.6258 7.07462 11.292 6.93302 10.9583 6.82177C11.3831 6.21495 11.7876 5.82051 11.9798 5.63846C12.1719 5.82051 12.5664 6.21495 12.9912 6.82177C12.6574 6.93302 12.3236 7.07462 11.9697 7.23644ZM11.9798 4.46526C12.2731 4.69788 13.0721 5.41596 13.8407 6.55881C13.689 6.59927 13.5272 6.63972 13.3654 6.69029C12.7181 5.74971 12.1214 5.25414 12.1011 5.23391L11.9798 5.13277L11.8584 5.23391C11.8281 5.25414 11.2314 5.74971 10.5841 6.69029C10.4222 6.63972 10.2604 6.59927 10.1087 6.55881C10.8875 5.41596 11.6966 4.70799 11.9798 4.46526ZM6.6397 6.63972C7.21618 6.57904 9.49178 6.44756 11.8887 7.61064C12.2023 7.76235 12.5057 7.92417 12.7889 8.10622C12.9912 8.22758 13.1934 8.36918 13.3654 8.50066L13.426 8.55123L13.4968 8.54111C14.397 8.39952 15.1454 8.47031 15.4286 8.51077C15.469 8.79396 15.5398 9.53226 15.3982 10.4425L15.3881 10.5234L15.4387 10.5841C15.56 10.7459 15.6713 10.928 15.7826 11.0999C15.7118 11.2718 15.641 11.4336 15.5499 11.5955C15.3477 11.2617 15.1252 10.928 14.8824 10.6245C15.0847 9.75477 15.0341 9.12771 15.0341 9.10748L15.024 8.95578L14.8622 8.93555C14.8319 8.93555 14.2149 8.87487 13.3451 9.08726C12.9406 8.77373 12.5158 8.48043 12.0708 8.2377C11.7674 8.07588 11.4539 7.92417 11.1302 7.79269C9.04678 6.93302 7.32743 7.10496 7.25664 7.11507L7.10493 7.12519L7.0847 7.27689C7.07459 7.34769 6.91277 9.01646 7.73198 11.0594C7.63085 11.2314 7.52971 11.3932 7.43869 11.5651C6.87231 10.2503 6.67004 9.01646 6.61947 8.17702C6.57901 7.43871 6.61947 6.88245 6.6397 6.63972ZM8.14665 10.4223C8.09608 10.4931 8.04551 10.574 7.99494 10.6448C7.4488 9.14794 7.4488 7.8736 7.45891 7.44882C7.8938 7.4286 9.15803 7.43871 10.6549 7.98486C10.574 8.03542 10.493 8.09611 10.4222 8.14668C9.22882 7.97474 8.33881 8.14667 8.29836 8.15679L8.17699 8.17702L8.14665 8.29838C8.14665 8.34895 7.97472 9.22885 8.14665 10.4223ZM6.82174 12.9912C6.21492 12.5664 5.81037 12.172 5.63843 11.9798C5.82048 11.7876 6.21492 11.3932 6.82174 10.9684C6.933 11.3022 7.07459 11.6359 7.23641 11.9798C7.07459 12.3237 6.933 12.6675 6.82174 12.9912ZM4.46523 11.9798C4.69785 11.6865 5.41593 10.8875 6.55879 10.1189C6.59924 10.2706 6.6397 10.4324 6.69027 10.5942C5.74968 11.2415 5.25411 11.8382 5.23388 11.8584L5.13274 11.9798L5.23388 12.1012C5.25411 12.1315 5.74968 12.7181 6.70038 13.3755C6.64981 13.5373 6.60936 13.6991 6.5689 13.8508C5.42604 13.0822 4.70796 12.2731 4.46523 11.9798ZM8.15676 17.3199C7.42857 17.3704 6.88243 17.3401 6.6397 17.3097C6.61947 17.067 6.57901 16.5209 6.62958 15.7927C6.69027 14.8824 6.91277 13.4969 7.60051 12.0607C7.75221 11.7573 7.91403 11.4438 8.09608 11.1606C8.21745 10.9583 8.34892 10.7661 8.4804 10.5841L8.53097 10.5234L8.52086 10.4425C8.37927 9.53226 8.46018 8.79396 8.50063 8.50066C8.78382 8.4602 9.52212 8.38941 10.4324 8.52088L10.5032 8.531L10.5638 8.49054C10.7257 8.36918 10.8976 8.25793 11.0695 8.14668C11.2415 8.21747 11.4134 8.29838 11.5853 8.37929C11.2415 8.58157 10.9077 8.81419 10.5942 9.05692C9.7244 8.85464 9.09734 8.91532 9.067 8.91532L8.9153 8.93555L8.89507 9.08726C8.89507 9.1176 8.83439 9.74465 9.03666 10.6144C8.72313 11.0089 8.43995 11.4337 8.19722 11.8787C8.02528 12.1821 7.87358 12.4956 7.7421 12.8192C6.89254 14.9027 7.04425 16.622 7.05436 16.6928L7.07459 16.8445L7.2263 16.8546C7.24652 16.8546 7.39823 16.8749 7.65107 16.8749C8.28824 16.8749 9.56258 16.7838 11.019 16.2073C11.1808 16.3085 11.3426 16.3995 11.5044 16.4804C10.2402 17.067 8.99621 17.2592 8.15676 17.3199ZM7.99494 13.3047C8.04551 13.3755 8.09608 13.4564 8.14665 13.5272C7.97472 14.7206 8.14665 15.6106 8.15676 15.6511L8.1871 15.7725L8.30847 15.7927C8.34893 15.8028 9.23894 15.9747 10.4324 15.8028C10.5133 15.8534 10.5841 15.914 10.665 15.9646C9.16814 16.5108 7.88369 16.5209 7.4488 16.5108C7.43868 16.0759 7.4488 14.8015 7.99494 13.3047ZM11.9697 16.713C12.3135 16.8749 12.6574 17.0164 12.9912 17.1277C12.5664 17.7345 12.1719 18.1391 11.9798 18.3211C11.7876 18.1391 11.3932 17.7345 10.9583 17.1176C11.292 17.0164 11.6359 16.8749 11.9697 16.713ZM11.9798 19.4943C11.6865 19.2516 10.8774 18.5335 10.1188 17.3805C10.2705 17.3401 10.4324 17.2996 10.5942 17.2491C11.2415 18.1998 11.8382 18.7054 11.8685 18.7257L11.9899 18.8268L12.1113 18.7257C12.1416 18.7054 12.7282 18.1998 13.3755 17.2491C13.5373 17.2996 13.689 17.3401 13.8508 17.3805C13.0822 18.5234 12.2731 19.2516 11.9798 19.4943ZM17.3097 17.3097C17.0569 17.33 16.5209 17.3704 15.7927 17.3199C14.8824 17.2592 13.4867 17.0367 12.0607 16.3388C11.7573 16.1972 11.4539 16.0253 11.1707 15.8534C10.9684 15.732 10.7762 15.5904 10.5841 15.4589L10.5234 15.4084L10.4425 15.4185C9.53224 15.5601 8.79393 15.4792 8.50063 15.4387C8.46018 15.1555 8.37927 14.4071 8.52086 13.4969L8.53097 13.4159L8.4804 13.3553C8.36915 13.1934 8.2579 13.0316 8.14665 12.8597C8.21745 12.6878 8.29836 12.5158 8.37927 12.3439C8.58154 12.6878 8.80405 13.0114 9.05689 13.3148C8.85461 14.1846 8.9153 14.8116 8.9153 14.842L8.93552 14.9937L9.08723 15.0139C9.11757 15.0139 9.74463 15.0746 10.6144 14.8622C11.019 15.1757 11.4437 15.469 11.8887 15.7118C12.182 15.8736 12.4956 16.0253 12.8091 16.1467C14.3059 16.7636 15.6106 16.8546 16.2579 16.8546C16.5209 16.8546 16.6726 16.8445 16.6928 16.8344L16.8445 16.8142L16.8647 16.6625C16.8748 16.5917 17.0265 14.9128 16.2073 12.8698C16.3085 12.708 16.3995 12.5462 16.4905 12.3843C17.0569 13.689 17.2491 14.933 17.3097 15.7623C17.3704 16.5209 17.33 17.067 17.3097 17.3097ZM17.3805 13.8407C17.3401 13.689 17.2996 13.5272 17.2491 13.3755C18.1997 12.7282 18.7054 12.1315 18.7257 12.1012L18.8268 11.9798L18.7257 11.8584C18.7054 11.8281 18.1997 11.2415 17.2491 10.5942C17.2996 10.4324 17.3401 10.2807 17.3805 10.1189C18.5234 10.8774 19.2516 11.6865 19.4943 11.9798C19.2516 12.2731 18.5335 13.0822 17.3805 13.8407Z" fill="#BA9653"/>
</svg>
